<svg width="178" height="84" viewBox="0 0 178 84" fill="none" xmlns="http://www.w3.org/2000/svg">
<g clip-path="url(#clip0_413_1251)">
<path d="M12.9563 36.6154H1.39946C0.804839 36.6154 0.450704 35.9603 0.785184 35.4741C8.27105 24.5936 22.1349 4.46006 23.4056 2.68385C24.7222 0.843494 27.1237 0.127802 28.1599 0H87.4373C88.0379 0 88.389 0.670207 88.0416 1.15522L82.5066 8.89241C82.3681 9.0864 82.1423 9.20174 81.9023 9.20174H72.9688C72.5598 9.20174 72.2282 9.52967 72.2282 9.93405V35.8831C72.2282 36.2875 71.8967 36.6154 71.4876 36.6154H61.8145C61.4056 36.6154 61.0739 36.2875 61.0739 35.8831V9.93405C61.0739 9.52967 60.7424 9.20174 60.3334 9.20174H41.406C40.8193 9.20174 40.4656 9.84434 40.7841 10.3316L57.2268 35.4855C57.5454 35.9728 57.1917 36.6154 56.6049 36.6154H18.0207C17.4345 36.6154 17.0806 35.9739 17.3981 35.4865L23.1869 26.5992C23.3232 26.3899 23.5578 26.2634 23.8095 26.2634H36.403C37.0071 26.2634 37.3571 25.5867 37.0034 25.1023L29.5101 14.8418C29.2093 14.4298 28.586 14.4387 28.2972 14.859L13.5689 36.2946C13.431 36.4953 13.2017 36.6154 12.9563 36.6154Z" fill="white"/>
<path d="M0 64.1398L7.55971 47.619H10.1191L17.7736 64.1398H14.6692L12.6311 59.4999L13.8634 60.3201H3.8391L5.1188 59.4999L3.08076 64.1398H0ZM8.81572 50.8528L5.47427 58.6797L4.85812 57.9533H12.8207L12.323 58.6797L8.9105 50.8528H8.81572ZM19.5984 64.5382L18.1054 62.312C18.7689 61.9526 19.3532 61.5308 19.859 61.0465C20.3649 60.5623 20.7833 59.9608 21.1151 59.2421C21.4468 58.5079 21.692 57.6096 21.8497 56.5472C22.0237 55.4693 22.1104 54.1726 22.1104 52.6572V47.619H34.2438V64.1398H31.2105V50.0795H24.9305V53.4071C24.9305 54.985 24.812 56.3754 24.575 57.5783C24.338 58.7813 23.9907 59.8358 23.5323 60.7419C23.0739 61.6324 22.5132 62.3901 21.8497 63.015C21.2017 63.6243 20.4515 64.132 19.5984 64.5382ZM52.1707 64.3742C50.6852 64.3742 49.3744 64.0773 48.2368 63.4837C47.0993 62.8744 46.1825 62.0152 45.4879 60.9059C44.808 59.7967 44.3896 58.4923 44.2319 56.9925H40.9615V64.1398H37.9282V47.619H40.9615V54.5319H44.2556C44.4451 53.0634 44.8791 51.798 45.559 50.7357C46.2536 49.6577 47.1623 48.8297 48.2843 48.2517C49.4055 47.6736 50.7015 47.3846 52.1707 47.3846C53.8133 47.3846 55.2352 47.7361 56.4364 48.4391C57.6369 49.1265 58.5692 50.1029 59.2328 51.3684C59.8963 52.6338 60.2281 54.1336 60.2281 55.8677C60.2281 57.6018 59.8963 59.1094 59.2328 60.3904C58.5692 61.6558 57.6287 62.64 56.4127 63.3431C55.2115 64.0305 53.7978 64.3742 52.1707 64.3742ZM52.1707 61.8199C53.7185 61.8199 54.9197 61.2965 55.7729 60.2498C56.626 59.2031 57.0526 57.7424 57.0526 55.8677C57.0526 53.993 56.626 52.5401 55.7729 51.509C54.9197 50.4623 53.7185 49.9389 52.1707 49.9389C50.6378 49.9389 49.4455 50.4623 48.5923 51.509C47.7392 52.5401 47.3126 53.993 47.3126 55.8677C47.3126 57.7424 47.7392 59.2031 48.5923 60.2498C49.4455 61.2965 50.6378 61.8199 52.1707 61.8199ZM63.3852 64.1398V47.619H70.8027C72.6348 47.619 74.033 48.0564 74.9973 48.9312C75.9607 49.8061 76.4428 51.009 76.4428 52.5401C76.4428 54.0554 75.9607 55.2584 74.9973 56.1489C74.033 57.0394 72.6348 57.4846 70.8027 57.4846H66.4422V64.1398H63.3852ZM66.4422 55.0943H70.4472C71.4581 55.0943 72.2164 54.8756 72.7222 54.4382C73.2273 53.9851 73.4806 53.3524 73.4806 52.5401C73.4806 51.7277 73.2273 51.1028 72.7222 50.6654C72.2164 50.2123 71.4581 49.9858 70.4472 49.9858H66.4422V55.0943ZM82.6858 64.1398V50.1029H77.1642V47.619H91.2645V50.1029H85.7429V64.1398H82.6858ZM93.424 64.1398V47.619H100.842C102.674 47.619 104.073 48.0564 105.036 48.9312C106 49.8061 106.482 51.009 106.482 52.5401C106.482 54.0554 106 55.2584 105.036 56.1489C104.073 57.0394 102.674 57.4846 100.842 57.4846H96.4811V64.1398H93.424ZM96.4811 55.0943H100.486C101.498 55.0943 102.256 54.8756 102.761 54.4382C103.267 53.9851 103.519 53.3524 103.519 52.5401C103.519 51.7277 103.267 51.1028 102.761 50.6654C102.256 50.2123 101.498 49.9858 100.486 49.9858H96.4811V55.0943ZM105.577 64.1398L113.137 47.619H115.697L123.351 64.1398H120.247L118.209 59.4999L119.441 60.3201H109.417L110.696 59.4999L108.658 64.1398H105.577ZM114.393 50.8528L111.052 58.6797L110.436 57.9533H118.398L117.901 58.6797L114.488 50.8528H114.393ZM125.2 64.1398V47.619H128.209V54.6491H131.053L130.437 55.0475L135.366 47.619H138.731L133.233 55.6099L132.072 54.7663C133.146 54.9225 134.039 55.2897 134.75 55.8677C135.476 56.4301 136.108 57.2268 136.646 58.2579L139.608 64.1398H136.314L134.015 59.3827C133.62 58.5547 133.146 57.9689 132.593 57.6252C132.056 57.2815 131.368 57.1097 130.532 57.1097H128.209V64.1398H125.2Z" fill="white"/>
<path d="M1.1731 80.2506V70.9576H9.03792V80.2506H7.93152V71.8803H2.25284V80.2506H1.1731ZM11.3129 83.0978V75.1625C11.3129 74.9165 11.2996 74.666 11.273 74.4112C11.2552 74.1475 11.233 73.8883 11.2063 73.6335H12.2461L12.3927 75.2021H12.2327C12.3749 74.6836 12.6637 74.275 13.0992 73.9762C13.5346 73.6686 14.0545 73.5148 14.6588 73.5148C15.2631 73.5148 15.783 73.651 16.2185 73.9234C16.6628 74.1959 17.0094 74.5869 17.2582 75.0966C17.507 75.6063 17.6315 76.2214 17.6315 76.942C17.6315 77.6538 17.507 78.2646 17.2582 78.7743C17.0183 79.2839 16.6761 79.6794 16.2318 79.9606C15.7875 80.233 15.2631 80.3692 14.6588 80.3692C14.0634 80.3692 13.548 80.2198 13.1125 79.921C12.6771 79.6223 12.3882 79.2136 12.2461 78.6952H12.3927V83.0978H11.3129ZM14.4455 79.4992C15.0854 79.4992 15.5919 79.2839 15.9652 78.8533C16.3473 78.414 16.5384 77.7769 16.5384 76.942C16.5384 76.0984 16.3473 75.4613 15.9652 75.0307C15.5919 74.5913 15.0854 74.3716 14.4455 74.3716C13.8146 74.3716 13.308 74.5913 12.9259 75.0307C12.5526 75.4613 12.366 76.0984 12.366 76.942C12.366 77.7769 12.5526 78.414 12.9259 78.8533C13.308 79.2839 13.8146 79.4992 14.4455 79.4992ZM22.1948 80.3692C21.555 80.3692 20.9951 80.233 20.5152 79.9606C20.0442 79.6794 19.6799 79.2839 19.4222 78.7743C19.1644 78.2558 19.0356 77.645 19.0356 76.942C19.0356 76.2302 19.1644 75.6195 19.4222 75.1098C19.6799 74.6001 20.0442 74.209 20.5152 73.9366C20.9951 73.6554 21.555 73.5148 22.1948 73.5148C22.8436 73.5148 23.4035 73.6554 23.8745 73.9366C24.3543 74.209 24.7231 74.6001 24.9809 75.1098C25.2475 75.6195 25.3808 76.2302 25.3808 76.942C25.3808 77.645 25.2475 78.2558 24.9809 78.7743C24.7231 79.2839 24.3543 79.6794 23.8745 79.9606C23.4035 80.233 22.8436 80.3692 22.1948 80.3692ZM22.1948 79.4992C22.8347 79.4992 23.3412 79.2839 23.7145 78.8533C24.0877 78.414 24.2744 77.7769 24.2744 76.942C24.2744 76.0984 24.0833 75.4613 23.7012 75.0307C23.3279 74.5913 22.8258 74.3716 22.1948 74.3716C21.5639 74.3716 21.0618 74.5913 20.6885 75.0307C20.3153 75.4613 20.1287 76.0984 20.1287 76.942C20.1287 77.7769 20.3153 78.414 20.6885 78.8533C21.0618 79.2839 21.5639 79.4992 22.1948 79.4992ZM26.4346 81.9642V79.407H27.1411C27.461 78.9588 27.6921 78.4227 27.8343 77.7988C27.9765 77.1749 28.0475 76.4367 28.0475 75.5843V73.6335H32.7531V79.407H33.8062V81.9642H32.8731V80.2506H27.3544V81.9642H26.4346ZM28.1808 79.4202H31.7267V74.4639H28.994V75.7557C28.994 76.4499 28.9229 77.1222 28.7807 77.7725C28.6474 78.414 28.4474 78.9632 28.1808 79.4202ZM37.8504 80.3692C37.255 80.3692 36.7351 80.233 36.2908 79.9606C35.8465 79.6794 35.4999 79.2839 35.251 78.7743C35.0111 78.2646 34.8911 77.6538 34.8911 76.942C34.8911 76.2214 35.0111 75.6063 35.251 75.0966C35.4999 74.5869 35.8465 74.1959 36.2908 73.9234C36.7351 73.651 37.255 73.5148 37.8504 73.5148C38.4547 73.5148 38.9746 73.6686 39.4101 73.9762C39.8544 74.275 40.1477 74.6836 40.2899 75.2021H40.1299L40.2765 73.6335H41.3163C41.2896 73.8883 41.263 74.1475 41.2363 74.4112C41.2185 74.666 41.2096 74.9165 41.2096 75.1625V80.2506H40.1299V78.6952H40.2765C40.1343 79.2136 39.8411 79.6223 39.3967 79.921C38.9524 80.2198 38.437 80.3692 37.8504 80.3692ZM38.0637 79.4992C38.7036 79.4992 39.2101 79.2839 39.5834 78.8533C39.9566 78.414 40.1432 77.7769 40.1432 76.942C40.1432 76.0984 39.9566 75.4613 39.5834 75.0307C39.2101 74.5913 38.7036 74.3716 38.0637 74.3716C37.4328 74.3716 36.9262 74.5913 36.5441 75.0307C36.1708 75.4613 35.9842 76.0984 35.9842 76.942C35.9842 77.7769 36.1708 78.414 36.5441 78.8533C36.9262 79.2839 37.4328 79.4992 38.0637 79.4992ZM42.3338 80.2506L43.7202 77.9306C43.9334 77.5879 44.1245 77.3199 44.2934 77.1266C44.4622 76.9332 44.64 76.7882 44.8266 76.6916C45.0221 76.5949 45.2443 76.5334 45.4931 76.507L45.2265 76.8366L42.6804 73.6335H43.8668L46.093 76.4148H47.1727V73.6335H48.2524V76.4148H49.3189L51.5317 73.6335H52.7314L50.172 76.8366L49.8921 76.507C50.1498 76.5334 50.3719 76.5949 50.5586 76.6916C50.7541 76.7882 50.9407 76.9332 51.1184 77.1266C51.2962 77.3199 51.4872 77.5879 51.6916 77.9306L53.0647 80.2506H51.9049L50.6785 78.1943C50.5275 77.9394 50.3808 77.7461 50.2386 77.6143C50.1053 77.4825 49.9543 77.3902 49.7854 77.3375C49.6166 77.2847 49.4033 77.2584 49.1456 77.2584H48.2524V80.2506H47.1727V77.2584H46.2662C46.0085 77.2584 45.7952 77.2847 45.6264 77.3375C45.4575 77.3902 45.302 77.4825 45.1598 77.6143C45.0265 77.7461 44.8843 77.9394 44.7333 78.1943L43.5069 80.2506H42.3338ZM56.7527 80.3692C56.1573 80.3692 55.6374 80.233 55.193 79.9606C54.7487 79.6794 54.4021 79.2839 54.1533 78.7743C53.9133 78.2646 53.7934 77.6538 53.7934 76.942C53.7934 76.2214 53.9133 75.6063 54.1533 75.0966C54.4021 74.5869 54.7487 74.1959 55.193 73.9234C55.6374 73.651 56.1573 73.5148 56.7527 73.5148C57.357 73.5148 57.8769 73.6686 58.3123 73.9762C58.7567 74.275 59.0499 74.6836 59.1921 75.2021H59.0321L59.1788 73.6335H60.2185C60.1919 73.8883 60.1652 74.1475 60.1385 74.4112C60.1208 74.666 60.1119 74.9165 60.1119 75.1625V80.2506H59.0321V78.6952H59.1788C59.0366 79.2136 58.7433 79.6223 58.299 79.921C57.8546 80.2198 57.3392 80.3692 56.7527 80.3692ZM56.966 79.4992C57.6058 79.4992 58.1124 79.2839 58.4856 78.8533C58.8588 78.414 59.0455 77.7769 59.0455 76.942C59.0455 76.0984 58.8588 75.4613 58.4856 75.0307C58.1124 74.5913 57.6058 74.3716 56.966 74.3716C56.335 74.3716 55.8284 74.5913 55.4463 75.0307C55.0731 75.4613 54.8864 76.0984 54.8864 76.942C54.8864 77.7769 55.0731 78.414 55.4463 78.8533C55.8284 79.2839 56.335 79.4992 56.966 79.4992ZM65.7646 80.2506V73.6335H70.4302V74.4903H66.8444V80.2506H65.7646ZM71.7543 83.0978V75.1625C71.7543 74.9165 71.741 74.666 71.7144 74.4112C71.6966 74.1475 71.6744 73.8883 71.6477 73.6335H72.6875L72.8341 75.2021H72.6741C72.8163 74.6836 73.1051 74.275 73.5406 73.9762C73.976 73.6686 74.4959 73.5148 75.1002 73.5148C75.7045 73.5148 76.2244 73.651 76.6599 73.9234C77.1042 74.1959 77.4508 74.5869 77.6996 75.0966C77.9485 75.6063 78.0729 76.2214 78.0729 76.942C78.0729 77.6538 77.9485 78.2646 77.6996 78.7743C77.4597 79.2839 77.1175 79.6794 76.6732 79.9606C76.2289 80.233 75.7045 80.3692 75.1002 80.3692C74.5048 80.3692 73.9894 80.2198 73.5539 79.921C73.1185 79.6223 72.8297 79.2136 72.6875 78.6952H72.8341V83.0978H71.7543ZM74.8869 79.4992C75.5268 79.4992 76.0333 79.2839 76.4066 78.8533C76.7887 78.414 76.9798 77.7769 76.9798 76.942C76.9798 76.0984 76.7887 75.4613 76.4066 75.0307C76.0333 74.5913 75.5268 74.3716 74.8869 74.3716C74.256 74.3716 73.7494 74.5913 73.3673 75.0307C72.9941 75.4613 72.8074 76.0984 72.8074 76.942C72.8074 77.7769 72.9941 78.414 73.3673 78.8533C73.7494 79.2839 74.256 79.4992 74.8869 79.4992ZM79.5459 83.2428L79.2926 82.3596C79.7103 82.263 80.0568 82.1487 80.3323 82.0169C80.6167 81.8939 80.8522 81.7269 81.0388 81.516C81.2255 81.3051 81.3854 81.0415 81.5187 80.7251L81.8653 79.9474L81.8386 80.3956L78.9193 73.6335H80.0924L82.5052 79.4465H82.1586L84.5447 73.6335H85.6778L82.5852 80.8042C82.4074 81.226 82.2119 81.5775 81.9986 81.8587C81.7853 82.1487 81.5543 82.3816 81.3054 82.5574C81.0655 82.7419 80.7989 82.8869 80.5056 82.9923C80.2124 83.0978 79.8924 83.1813 79.5459 83.2428ZM89.1577 80.3692C88.5889 80.3692 88.0513 80.2945 87.5447 80.1451C87.0471 79.987 86.6383 79.7717 86.3184 79.4992L86.6916 78.7479C87.0204 79.0115 87.3892 79.2136 87.798 79.3542C88.2157 79.4861 88.6689 79.552 89.1577 79.552C89.8153 79.552 90.2907 79.4509 90.584 79.2488C90.8773 79.0467 91.0239 78.7611 91.0239 78.392C91.0239 78.0317 90.8995 77.7593 90.6507 77.5747C90.4018 77.3814 90.0375 77.2847 89.5576 77.2847H87.9846V76.4938H89.4243C89.8509 76.4938 90.1841 76.4016 90.424 76.217C90.6729 76.0237 90.7973 75.7601 90.7973 75.4261C90.7973 75.0834 90.664 74.8154 90.3974 74.6221C90.1308 74.42 89.7131 74.3189 89.1443 74.3189C88.6911 74.3189 88.269 74.3804 87.878 74.5034C87.4958 74.6177 87.1315 74.8022 86.7849 75.0571L86.425 74.3321C86.7893 74.0509 87.2115 73.8444 87.6914 73.7125C88.1712 73.5807 88.6911 73.5148 89.251 73.5148C90.0863 73.5148 90.7218 73.6774 91.1572 74.0025C91.5927 74.3189 91.8104 74.7715 91.8104 75.3602C91.8104 75.7733 91.6682 76.1292 91.3838 76.4279C91.0994 76.7179 90.7218 76.8893 90.2508 76.942V76.7838C90.784 76.8014 91.215 76.9596 91.5438 77.2584C91.8726 77.5572 92.037 77.9482 92.037 78.4315C92.037 79.0203 91.7926 79.4905 91.3038 79.842C90.824 80.1935 90.1086 80.3692 89.1577 80.3692ZM96.5137 80.3692C95.8739 80.3692 95.314 80.233 94.8341 79.9606C94.3631 79.6794 93.9988 79.2839 93.7411 78.7743C93.4833 78.2558 93.3545 77.645 93.3545 76.942C93.3545 76.2302 93.4833 75.6195 93.7411 75.1098C93.9988 74.6001 94.3631 74.209 94.8341 73.9366C95.314 73.6554 95.8739 73.5148 96.5137 73.5148C97.1625 73.5148 97.7223 73.6554 98.1933 73.9366C98.6732 74.209 99.042 74.6001 99.2997 75.1098C99.5664 75.6195 99.6997 76.2302 99.6997 76.942C99.6997 77.645 99.5664 78.2558 99.2997 78.7743C99.042 79.2839 98.6732 79.6794 98.1933 79.9606C97.7223 80.233 97.1625 80.3692 96.5137 80.3692ZM96.5137 79.4992C97.1536 79.4992 97.6601 79.2839 98.0334 78.8533C98.4066 78.414 98.5932 77.7769 98.5932 76.942C98.5932 76.0984 98.4022 75.4613 98.0201 75.0307C97.6468 74.5913 97.1447 74.3716 96.5137 74.3716C95.8828 74.3716 95.3807 74.5913 95.0074 75.0307C94.6342 75.4613 94.4475 76.0984 94.4475 76.942C94.4475 77.7769 94.6342 78.414 95.0074 78.8533C95.3807 79.2839 95.8828 79.4992 96.5137 79.4992ZM101.46 80.2506V73.6335H104.686C105.459 73.6335 106.037 73.7828 106.419 74.0816C106.81 74.3716 107.005 74.8022 107.005 75.3734C107.005 75.7952 106.854 76.1511 106.552 76.4411C106.259 76.7223 105.877 76.8893 105.406 76.942V76.7838C105.957 76.8014 106.397 76.9596 106.725 77.2584C107.054 77.5572 107.219 77.9438 107.219 78.4184C107.219 78.9896 107.005 79.4377 106.579 79.7629C106.161 80.088 105.566 80.2506 104.793 80.2506H101.46ZM102.486 79.5256H104.739C105.21 79.5256 105.57 79.4289 105.819 79.2356C106.077 79.0335 106.206 78.7479 106.206 78.3788C106.206 78.0097 106.077 77.7285 105.819 77.5352C105.57 77.3419 105.21 77.2452 104.739 77.2452H102.486V79.5256ZM102.486 76.5202H104.619C105.055 76.5202 105.392 76.4235 105.632 76.2302C105.872 76.0369 105.992 75.7689 105.992 75.4261C105.992 75.0834 105.872 74.8198 105.632 74.6353C105.392 74.4419 105.055 74.3453 104.619 74.3453H102.486V76.5202ZM111.692 80.3692C111.053 80.3692 110.493 80.233 110.013 79.9606C109.542 79.6794 109.177 79.2839 108.92 78.7743C108.662 78.2558 108.533 77.645 108.533 76.942C108.533 76.2302 108.662 75.6195 108.92 75.1098C109.177 74.6001 109.542 74.209 110.013 73.9366C110.493 73.6554 111.053 73.5148 111.692 73.5148C112.341 73.5148 112.901 73.6554 113.372 73.9366C113.852 74.209 114.221 74.6001 114.478 75.1098C114.745 75.6195 114.878 76.2302 114.878 76.942C114.878 77.645 114.745 78.2558 114.478 78.7743C114.221 79.2839 113.852 79.6794 113.372 79.9606C112.901 80.233 112.341 80.3692 111.692 80.3692ZM111.692 79.4992C112.332 79.4992 112.839 79.2839 113.212 78.8533C113.585 78.414 113.772 77.7769 113.772 76.942C113.772 76.0984 113.581 75.4613 113.199 75.0307C112.825 74.5913 112.323 74.3716 111.692 74.3716C111.061 74.3716 110.559 74.5913 110.186 75.0307C109.813 75.4613 109.626 76.0984 109.626 76.942C109.626 77.7769 109.813 78.414 110.186 78.8533C110.559 79.2839 111.061 79.4992 111.692 79.4992ZM116.639 80.2506V73.6335H117.625V79.262H117.265L121.531 73.6335H122.437V80.2506H121.464V74.6089H121.824L117.558 80.2506H116.639ZM119.531 73.0139C119.167 73.0139 118.829 72.9524 118.518 72.8294C118.207 72.7064 117.936 72.5218 117.705 72.2758C117.474 72.0209 117.301 71.709 117.185 71.3399L117.825 71.1026C117.985 71.5244 118.203 71.8364 118.478 72.0385C118.763 72.2406 119.118 72.3417 119.545 72.3417C119.971 72.3417 120.322 72.2494 120.598 72.0649C120.873 71.8803 121.113 71.564 121.318 71.1158L121.931 71.3399C121.7 71.9374 121.375 72.368 120.958 72.6317C120.549 72.8865 120.073 73.0139 119.531 73.0139ZM129.468 80.2506V74.4903H127.042V73.6335H132.987V74.4903H130.548V80.2506H129.468ZM137.108 80.3692C136.059 80.3692 135.233 80.0704 134.628 79.4729C134.024 78.8665 133.722 78.0273 133.722 76.9552C133.722 76.261 133.855 75.659 134.122 75.1493C134.389 74.6309 134.762 74.231 135.242 73.9498C135.722 73.6598 136.273 73.5148 136.895 73.5148C137.508 73.5148 138.023 73.6422 138.441 73.8971C138.859 74.1519 139.179 74.5166 139.401 74.9912C139.623 75.4569 139.734 76.0105 139.734 76.652V77.0475H134.549V76.3752H139.027L138.801 76.5466C138.801 75.8436 138.641 75.2943 138.321 74.8989C138.001 74.5034 137.526 74.3057 136.895 74.3057C136.228 74.3057 135.708 74.5386 135.335 75.0043C134.962 75.4613 134.775 76.0808 134.775 76.8629V76.9816C134.775 77.8076 134.98 78.4359 135.388 78.8665C135.806 79.2883 136.388 79.4992 137.135 79.4992C137.534 79.4992 137.908 79.4421 138.254 79.3279C138.61 79.2049 138.947 79.0071 139.267 78.7347L139.641 79.4861C139.347 79.7673 138.974 79.987 138.521 80.1451C138.077 80.2945 137.606 80.3692 137.108 80.3692ZM140.48 80.2506L143.479 76.5729V77.1002L140.64 73.6335H141.946L144.092 76.3357H143.706L145.838 73.6335H147.132L144.332 77.087V76.5993L147.305 80.2506H145.985L143.692 77.3638H144.092L141.773 80.2506H140.48ZM148.584 80.2506V73.6335H149.663V76.4016H153.343V73.6335H154.422V80.2506H153.343V77.2584H149.663V80.2506H148.584ZM156.551 80.2506V73.6335H157.537V79.262H157.177L161.443 73.6335H162.349V80.2506H161.376V74.6089H161.736L157.471 80.2506H156.551ZM164.479 80.2506V73.6335H165.558V76.4148H166.825L169.037 73.6335H170.224L167.691 76.8366L167.398 76.507C167.656 76.5334 167.878 76.5949 168.064 76.6916C168.251 76.7882 168.429 76.9332 168.598 77.1266C168.775 77.3199 168.966 77.5879 169.171 77.9306L170.557 80.2506H169.397L168.171 78.1943C168.02 77.9394 167.873 77.7461 167.731 77.6143C167.598 77.4825 167.442 77.3902 167.265 77.3375C167.096 77.2847 166.882 77.2584 166.625 77.2584H165.558V80.2506H164.479ZM171.652 80.2506V73.6335H172.638V79.262H172.278L176.544 73.6335H177.45V80.2506H176.477V74.6089H176.837L172.571 80.2506H171.652Z" fill="white"/>
</g>
<defs>
<clipPath id="clip0_413_1251">
<rect width="178" height="84" fill="white"/>
</clipPath>
</defs>
</svg>
