<svg width="362" height="50" viewBox="0 0 362 50" fill="none" xmlns="http://www.w3.org/2000/svg">
<path d="M120 23L130.208 0.439999H133.664L144 23H139.808L137.056 16.664L138.72 17.784H125.184L126.912 16.664L124.16 23H120ZM131.904 4.856L127.392 15.544L126.56 14.552H137.312L136.64 15.544L132.032 4.856H131.904ZM146.464 23.544L144.448 20.504C145.344 20.0133 146.133 19.4373 146.816 18.776C147.499 18.1147 148.064 17.2933 148.512 16.312C148.96 15.3093 149.291 14.0827 149.504 12.632C149.739 11.16 149.856 9.38933 149.856 7.32V0.439999H166.24V23H162.144V3.8H153.664V8.344C153.664 10.4987 153.504 12.3973 153.184 14.04C152.864 15.6827 152.395 17.1227 151.776 18.36C151.157 19.576 150.4 20.6107 149.504 21.464C148.629 22.296 147.616 22.9893 146.464 23.544ZM190.447 23.32C188.441 23.32 186.671 22.9147 185.135 22.104C183.599 21.272 182.361 20.0987 181.423 18.584C180.505 17.0693 179.94 15.288 179.727 13.24H175.311V23H171.215V0.439999H175.311V9.88H179.759C180.015 7.87467 180.601 6.14667 181.519 4.696C182.457 3.224 183.684 2.09333 185.199 1.304C186.713 0.514666 188.463 0.119999 190.447 0.119999C192.665 0.119999 194.585 0.599999 196.207 1.56C197.828 2.49867 199.087 3.832 199.983 5.56C200.879 7.288 201.327 9.336 201.327 11.704C201.327 14.072 200.879 16.1307 199.983 17.88C199.087 19.608 197.817 20.952 196.175 21.912C194.553 22.8507 192.644 23.32 190.447 23.32ZM190.447 19.832C192.537 19.832 194.159 19.1173 195.311 17.688C196.463 16.2587 197.039 14.264 197.039 11.704C197.039 9.144 196.463 7.16 195.311 5.752C194.159 4.32267 192.537 3.608 190.447 3.608C188.377 3.608 186.767 4.32267 185.615 5.752C184.463 7.16 183.887 9.144 183.887 11.704C183.887 14.264 184.463 16.2587 185.615 17.688C186.767 19.1173 188.377 19.832 190.447 19.832ZM205.59 23V0.439999H215.606C218.08 0.439999 219.968 1.03733 221.27 2.232C222.571 3.42666 223.222 5.06933 223.222 7.16C223.222 9.22933 222.571 10.872 221.27 12.088C219.968 13.304 218.08 13.912 215.606 13.912H209.718V23H205.59ZM209.718 10.648H215.126C216.491 10.648 217.515 10.3493 218.198 9.752C218.88 9.13333 219.222 8.26933 219.222 7.16C219.222 6.05067 218.88 5.19733 218.198 4.6C217.515 3.98133 216.491 3.672 215.126 3.672H209.718V10.648ZM231.652 23V3.832H224.196V0.439999H243.236V3.832H235.78V23H231.652ZM246.152 23V0.439999H256.168C258.643 0.439999 260.531 1.03733 261.832 2.232C263.134 3.42666 263.784 5.06933 263.784 7.16C263.784 9.22933 263.134 10.872 261.832 12.088C260.531 13.304 258.643 13.912 256.168 13.912H250.28V23H246.152ZM250.28 10.648H255.688C257.054 10.648 258.078 10.3493 258.76 9.752C259.443 9.13333 259.784 8.26933 259.784 7.16C259.784 6.05067 259.443 5.19733 258.76 4.6C258.078 3.98133 257.054 3.672 255.688 3.672H250.28V10.648ZM262.562 23L272.771 0.439999H276.227L286.563 23H282.371L279.619 16.664L281.283 17.784H267.747L269.475 16.664L266.723 23H262.562ZM274.467 4.856L269.955 15.544L269.123 14.552H279.875L279.203 15.544L274.595 4.856H274.467ZM289.059 23V0.439999H293.123V10.04H296.963L296.131 10.584L302.787 0.439999H307.331L299.907 11.352L298.339 10.2C299.789 10.4133 300.995 10.9147 301.955 11.704C302.936 12.472 303.789 13.56 304.515 14.968L308.515 23H304.067L300.963 16.504C300.429 15.3733 299.789 14.5733 299.043 14.104C298.317 13.6347 297.389 13.4 296.259 13.4H293.123V23H289.059Z" fill="#CD0D14"/>
<path d="M121.584 45V32.31H132.204V45H130.71V33.57H123.042V45H121.584ZM135.276 48.888V38.052C135.276 37.716 135.258 37.374 135.222 37.026C135.198 36.666 135.168 36.312 135.132 35.964H136.536L136.734 38.106H136.518C136.71 37.398 137.1 36.84 137.688 36.432C138.276 36.012 138.978 35.802 139.794 35.802C140.61 35.802 141.312 35.988 141.9 36.36C142.5 36.732 142.968 37.266 143.304 37.962C143.64 38.658 143.808 39.498 143.808 40.482C143.808 41.454 143.64 42.288 143.304 42.984C142.98 43.68 142.518 44.22 141.918 44.604C141.318 44.976 140.61 45.162 139.794 45.162C138.99 45.162 138.294 44.958 137.706 44.55C137.118 44.142 136.728 43.584 136.536 42.876H136.734V48.888H135.276ZM139.506 43.974C140.37 43.974 141.054 43.68 141.558 43.092C142.074 42.492 142.332 41.622 142.332 40.482C142.332 39.33 142.074 38.46 141.558 37.872C141.054 37.272 140.37 36.972 139.506 36.972C138.654 36.972 137.97 37.272 137.454 37.872C136.95 38.46 136.698 39.33 136.698 40.482C136.698 41.622 136.95 42.492 137.454 43.092C137.97 43.68 138.654 43.974 139.506 43.974ZM149.97 45.162C149.106 45.162 148.35 44.976 147.702 44.604C147.066 44.22 146.574 43.68 146.226 42.984C145.878 42.276 145.704 41.442 145.704 40.482C145.704 39.51 145.878 38.676 146.226 37.98C146.574 37.284 147.066 36.75 147.702 36.378C148.35 35.994 149.106 35.802 149.97 35.802C150.846 35.802 151.602 35.994 152.238 36.378C152.886 36.75 153.384 37.284 153.732 37.98C154.092 38.676 154.272 39.51 154.272 40.482C154.272 41.442 154.092 42.276 153.732 42.984C153.384 43.68 152.886 44.22 152.238 44.604C151.602 44.976 150.846 45.162 149.97 45.162ZM149.97 43.974C150.834 43.974 151.518 43.68 152.022 43.092C152.526 42.492 152.778 41.622 152.778 40.482C152.778 39.33 152.52 38.46 152.004 37.872C151.5 37.272 150.822 36.972 149.97 36.972C149.118 36.972 148.44 37.272 147.936 37.872C147.432 38.46 147.18 39.33 147.18 40.482C147.18 41.622 147.432 42.492 147.936 43.092C148.44 43.68 149.118 43.974 149.97 43.974ZM155.695 47.34V43.848H156.649C157.081 43.236 157.393 42.504 157.585 41.652C157.777 40.8 157.873 39.792 157.873 38.628V35.964H164.227V43.848H165.649V47.34H164.389V45H156.937V47.34H155.695ZM158.053 43.866H162.841V37.098H159.151V38.862C159.151 39.81 159.055 40.728 158.863 41.616C158.683 42.492 158.413 43.242 158.053 43.866ZM171.11 45.162C170.306 45.162 169.604 44.976 169.004 44.604C168.404 44.22 167.936 43.68 167.6 42.984C167.276 42.288 167.114 41.454 167.114 40.482C167.114 39.498 167.276 38.658 167.6 37.962C167.936 37.266 168.404 36.732 169.004 36.36C169.604 35.988 170.306 35.802 171.11 35.802C171.926 35.802 172.628 36.012 173.216 36.432C173.816 36.84 174.212 37.398 174.404 38.106H174.188L174.386 35.964H175.79C175.754 36.312 175.718 36.666 175.682 37.026C175.658 37.374 175.646 37.716 175.646 38.052V45H174.188V42.876H174.386C174.194 43.584 173.798 44.142 173.198 44.55C172.598 44.958 171.902 45.162 171.11 45.162ZM171.398 43.974C172.262 43.974 172.946 43.68 173.45 43.092C173.954 42.492 174.206 41.622 174.206 40.482C174.206 39.33 173.954 38.46 173.45 37.872C172.946 37.272 172.262 36.972 171.398 36.972C170.546 36.972 169.862 37.272 169.346 37.872C168.842 38.46 168.59 39.33 168.59 40.482C168.59 41.622 168.842 42.492 169.346 43.092C169.862 43.68 170.546 43.974 171.398 43.974ZM177.164 45L179.036 41.832C179.324 41.364 179.582 40.998 179.81 40.734C180.038 40.47 180.278 40.272 180.53 40.14C180.794 40.008 181.094 39.924 181.43 39.888L181.07 40.338L177.632 35.964H179.234L182.24 39.762H183.698V35.964H185.156V39.762H186.596L189.584 35.964H191.204L187.748 40.338L187.37 39.888C187.718 39.924 188.018 40.008 188.27 40.14C188.534 40.272 188.786 40.47 189.026 40.734C189.266 40.998 189.524 41.364 189.8 41.832L191.654 45H190.088L188.432 42.192C188.228 41.844 188.03 41.58 187.838 41.4C187.658 41.22 187.454 41.094 187.226 41.022C186.998 40.95 186.71 40.914 186.362 40.914H185.156V45H183.698V40.914H182.474C182.126 40.914 181.838 40.95 181.61 41.022C181.382 41.094 181.172 41.22 180.98 41.4C180.8 41.58 180.608 41.844 180.404 42.192L178.748 45H177.164ZM196.634 45.162C195.83 45.162 195.128 44.976 194.528 44.604C193.928 44.22 193.46 43.68 193.124 42.984C192.8 42.288 192.638 41.454 192.638 40.482C192.638 39.498 192.8 38.658 193.124 37.962C193.46 37.266 193.928 36.732 194.528 36.36C195.128 35.988 195.83 35.802 196.634 35.802C197.45 35.802 198.152 36.012 198.74 36.432C199.34 36.84 199.736 37.398 199.928 38.106H199.712L199.91 35.964H201.314C201.278 36.312 201.242 36.666 201.206 37.026C201.182 37.374 201.17 37.716 201.17 38.052V45H199.712V42.876H199.91C199.718 43.584 199.322 44.142 198.722 44.55C198.122 44.958 197.426 45.162 196.634 45.162ZM196.922 43.974C197.786 43.974 198.47 43.68 198.974 43.092C199.478 42.492 199.73 41.622 199.73 40.482C199.73 39.33 199.478 38.46 198.974 37.872C198.47 37.272 197.786 36.972 196.922 36.972C196.07 36.972 195.386 37.272 194.87 37.872C194.366 38.46 194.114 39.33 194.114 40.482C194.114 41.622 194.366 42.492 194.87 43.092C195.386 43.68 196.07 43.974 196.922 43.974ZM208.803 45V35.964H215.103V37.134H210.261V45H208.803ZM216.891 48.888V38.052C216.891 37.716 216.873 37.374 216.837 37.026C216.813 36.666 216.783 36.312 216.747 35.964H218.151L218.349 38.106H218.133C218.325 37.398 218.715 36.84 219.303 36.432C219.891 36.012 220.593 35.802 221.409 35.802C222.225 35.802 222.927 35.988 223.515 36.36C224.115 36.732 224.583 37.266 224.919 37.962C225.255 38.658 225.423 39.498 225.423 40.482C225.423 41.454 225.255 42.288 224.919 42.984C224.595 43.68 224.133 44.22 223.533 44.604C222.933 44.976 222.225 45.162 221.409 45.162C220.605 45.162 219.909 44.958 219.321 44.55C218.733 44.142 218.343 43.584 218.151 42.876H218.349V48.888H216.891ZM221.121 43.974C221.985 43.974 222.669 43.68 223.173 43.092C223.689 42.492 223.947 41.622 223.947 40.482C223.947 39.33 223.689 38.46 223.173 37.872C222.669 37.272 221.985 36.972 221.121 36.972C220.269 36.972 219.585 37.272 219.069 37.872C218.565 38.46 218.313 39.33 218.313 40.482C218.313 41.622 218.565 42.492 219.069 43.092C219.585 43.68 220.269 43.974 221.121 43.974ZM227.412 49.086L227.07 47.88C227.634 47.748 228.102 47.592 228.474 47.412C228.858 47.244 229.176 47.016 229.428 46.728C229.68 46.44 229.896 46.08 230.076 45.648L230.544 44.586L230.508 45.198L226.566 35.964H228.15L231.408 43.902H230.94L234.162 35.964H235.692L231.516 45.756C231.276 46.332 231.012 46.812 230.724 47.196C230.436 47.592 230.124 47.91 229.788 48.15C229.464 48.402 229.104 48.6 228.708 48.744C228.312 48.888 227.88 49.002 227.412 49.086ZM240.391 45.162C239.623 45.162 238.897 45.06 238.213 44.856C237.541 44.64 236.989 44.346 236.557 43.974L237.061 42.948C237.505 43.308 238.003 43.584 238.555 43.776C239.119 43.956 239.731 44.046 240.391 44.046C241.279 44.046 241.921 43.908 242.317 43.632C242.713 43.356 242.911 42.966 242.911 42.462C242.911 41.97 242.743 41.598 242.407 41.346C242.071 41.082 241.579 40.95 240.931 40.95H238.807V39.87H240.751C241.327 39.87 241.777 39.744 242.101 39.492C242.437 39.228 242.605 38.868 242.605 38.412C242.605 37.944 242.425 37.578 242.065 37.314C241.705 37.038 241.141 36.9 240.373 36.9C239.761 36.9 239.191 36.984 238.663 37.152C238.147 37.308 237.655 37.56 237.187 37.908L236.701 36.918C237.193 36.534 237.763 36.252 238.411 36.072C239.059 35.892 239.761 35.802 240.517 35.802C241.645 35.802 242.503 36.024 243.091 36.468C243.679 36.9 243.973 37.518 243.973 38.322C243.973 38.886 243.781 39.372 243.397 39.78C243.013 40.176 242.503 40.41 241.867 40.482V40.266C242.587 40.29 243.169 40.506 243.613 40.914C244.057 41.322 244.279 41.856 244.279 42.516C244.279 43.32 243.949 43.962 243.289 44.442C242.641 44.922 241.675 45.162 240.391 45.162ZM250.324 45.162C249.46 45.162 248.704 44.976 248.056 44.604C247.42 44.22 246.928 43.68 246.58 42.984C246.232 42.276 246.058 41.442 246.058 40.482C246.058 39.51 246.232 38.676 246.58 37.98C246.928 37.284 247.42 36.75 248.056 36.378C248.704 35.994 249.46 35.802 250.324 35.802C251.2 35.802 251.956 35.994 252.592 36.378C253.24 36.75 253.738 37.284 254.086 37.98C254.446 38.676 254.626 39.51 254.626 40.482C254.626 41.442 254.446 42.276 254.086 42.984C253.738 43.68 253.24 44.22 252.592 44.604C251.956 44.976 251.2 45.162 250.324 45.162ZM250.324 43.974C251.188 43.974 251.872 43.68 252.376 43.092C252.88 42.492 253.132 41.622 253.132 40.482C253.132 39.33 252.874 38.46 252.358 37.872C251.854 37.272 251.176 36.972 250.324 36.972C249.472 36.972 248.794 37.272 248.29 37.872C247.786 38.46 247.534 39.33 247.534 40.482C247.534 41.622 247.786 42.492 248.29 43.092C248.794 43.68 249.472 43.974 250.324 43.974ZM257.003 45V35.964H261.359C262.403 35.964 263.183 36.168 263.699 36.576C264.227 36.972 264.491 37.56 264.491 38.34C264.491 38.916 264.287 39.402 263.879 39.798C263.483 40.182 262.967 40.41 262.331 40.482V40.266C263.075 40.29 263.669 40.506 264.113 40.914C264.557 41.322 264.779 41.85 264.779 42.498C264.779 43.278 264.491 43.89 263.915 44.334C263.351 44.778 262.547 45 261.503 45H257.003ZM258.389 44.01H261.431C262.067 44.01 262.553 43.878 262.889 43.614C263.237 43.338 263.411 42.948 263.411 42.444C263.411 41.94 263.237 41.556 262.889 41.292C262.553 41.028 262.067 40.896 261.431 40.896H258.389V44.01ZM258.389 39.906H261.269C261.857 39.906 262.313 39.774 262.637 39.51C262.961 39.246 263.123 38.88 263.123 38.412C263.123 37.944 262.961 37.584 262.637 37.332C262.313 37.068 261.857 36.936 261.269 36.936H258.389V39.906ZM270.82 45.162C269.956 45.162 269.2 44.976 268.552 44.604C267.916 44.22 267.424 43.68 267.076 42.984C266.728 42.276 266.554 41.442 266.554 40.482C266.554 39.51 266.728 38.676 267.076 37.98C267.424 37.284 267.916 36.75 268.552 36.378C269.2 35.994 269.956 35.802 270.82 35.802C271.696 35.802 272.452 35.994 273.088 36.378C273.736 36.75 274.234 37.284 274.582 37.98C274.942 38.676 275.122 39.51 275.122 40.482C275.122 41.442 274.942 42.276 274.582 42.984C274.234 43.68 273.736 44.22 273.088 44.604C272.452 44.976 271.696 45.162 270.82 45.162ZM270.82 43.974C271.684 43.974 272.368 43.68 272.872 43.092C273.376 42.492 273.628 41.622 273.628 40.482C273.628 39.33 273.37 38.46 272.854 37.872C272.35 37.272 271.672 36.972 270.82 36.972C269.968 36.972 269.29 37.272 268.786 37.872C268.282 38.46 268.03 39.33 268.03 40.482C268.03 41.622 268.282 42.492 268.786 43.092C269.29 43.68 269.968 43.974 270.82 43.974ZM277.499 45V35.964H278.831V43.65H278.345L284.105 35.964H285.329V45H284.015V37.296H284.501L278.741 45H277.499ZM281.405 35.118C280.913 35.118 280.457 35.034 280.037 34.866C279.617 34.698 279.251 34.446 278.939 34.11C278.627 33.762 278.393 33.336 278.237 32.832L279.101 32.508C279.317 33.084 279.611 33.51 279.983 33.786C280.367 34.062 280.847 34.2 281.423 34.2C281.999 34.2 282.473 34.074 282.845 33.822C283.217 33.57 283.541 33.138 283.817 32.526L284.645 32.832C284.333 33.648 283.895 34.236 283.331 34.596C282.779 34.944 282.137 35.118 281.405 35.118ZM294.823 45V37.134H291.547V35.964H299.575V37.134H296.281V45H294.823ZM305.139 45.162C303.723 45.162 302.607 44.754 301.791 43.938C300.975 43.11 300.567 41.964 300.567 40.5C300.567 39.552 300.747 38.73 301.107 38.034C301.467 37.326 301.971 36.78 302.619 36.396C303.267 36 304.011 35.802 304.851 35.802C305.679 35.802 306.375 35.976 306.939 36.324C307.503 36.672 307.935 37.17 308.235 37.818C308.535 38.454 308.685 39.21 308.685 40.086V40.626H301.683V39.708H307.731L307.425 39.942C307.425 38.982 307.209 38.232 306.777 37.692C306.345 37.152 305.703 36.882 304.851 36.882C303.951 36.882 303.249 37.2 302.745 37.836C302.241 38.46 301.989 39.306 301.989 40.374V40.536C301.989 41.664 302.265 42.522 302.817 43.11C303.381 43.686 304.167 43.974 305.175 43.974C305.715 43.974 306.219 43.896 306.687 43.74C307.167 43.572 307.623 43.302 308.055 42.93L308.559 43.956C308.163 44.34 307.659 44.64 307.047 44.856C306.447 45.06 305.811 45.162 305.139 45.162ZM309.692 45L313.742 39.978V40.698L309.908 35.964H311.672L314.57 39.654H314.048L316.928 35.964H318.674L314.894 40.68V40.014L318.908 45H317.126L314.03 41.058H314.57L311.438 45H309.692ZM320.635 45V35.964H322.093V39.744H327.061V35.964H328.519V45H327.061V40.914H322.093V45H320.635ZM331.393 45V35.964H332.725V43.65H332.239L337.999 35.964H339.223V45H337.909V37.296H338.395L332.635 45H331.393ZM342.098 45V35.964H343.556V39.762H345.266L348.254 35.964H349.856L346.436 40.338L346.04 39.888C346.388 39.924 346.688 40.008 346.94 40.14C347.192 40.272 347.432 40.47 347.66 40.734C347.9 40.998 348.158 41.364 348.434 41.832L350.306 45H348.74L347.084 42.192C346.88 41.844 346.682 41.58 346.49 41.4C346.31 41.22 346.1 41.094 345.86 41.022C345.632 40.95 345.344 40.914 344.996 40.914H343.556V45H342.098ZM351.784 45V35.964H353.116V43.65H352.63L358.39 35.964H359.614V45H358.3V37.296H358.786L353.026 45H351.784Z" fill="#CD0D14"/>
<path d="M17.4951 50H1.88969C1.08676 50 0.608566 49.1054 1.06022 48.4415C11.1685 33.5837 29.8891 6.09042 31.6049 3.66492C33.3827 1.15183 36.6255 0.17452 38.0247 0H118.068C118.879 0 119.353 0.915198 118.884 1.57751L111.41 12.143C111.223 12.4079 110.918 12.5654 110.594 12.5654H98.5309C97.9786 12.5654 97.5309 13.0132 97.5309 13.5654V49C97.5309 49.5523 97.0832 50 96.5309 50H83.4691C82.9169 50 82.4691 49.5523 82.4691 49V13.5654C82.4691 13.0132 82.0214 12.5654 81.4691 12.5654H55.9112C55.1189 12.5654 54.6413 13.4429 55.0714 14.1083L77.2743 48.4571C77.7044 49.1225 77.2268 50 76.4345 50H24.3336C23.542 50 23.0642 49.124 23.4929 48.4585L31.3096 36.3224C31.4937 36.0366 31.8104 35.8639 32.1503 35.8639H49.1555C49.9712 35.8639 50.4438 34.9398 49.9662 34.2784L39.848 20.2672C39.4418 19.7046 38.6001 19.7167 38.2102 20.2906L18.3223 49.562C18.1361 49.836 17.8264 50 17.4951 50Z" fill="#CD0D14"/>
</svg>
